<?xml version="1.0" encoding="iso-8859-1"?>
<!-- Generator: Adobe Illustrator 19.0.0, SVG Export Plug-In . SVG Version: 6.00 Build 0)  -->
<svg version="1.1" id="Layer_1" xmlns="http://www.w3.org/2000/svg" xmlns:xlink="http://www.w3.org/1999/xlink" x="0px" y="0px"
	 viewBox="0 0 297.888 297.888" style="enable-background:new 0 0 297.888 297.888;" xml:space="preserve">
<g>
	<path style="fill:#5C6670;" d="M218.971,187.618c8.659,8.658,8.659,22.695,0,31.354c-8.657,8.658-22.694,8.657-31.352,0
		l-50.096-50.096c-8.657-8.658-8.659-22.695-0.001-31.353c8.659-8.659,22.696-8.658,31.355,0L218.971,187.618z"/>
	<circle style="fill:#1E252B;" cx="100.697" cy="100.697" r="100.697"/>
	<circle style="fill:#5E96DC;" cx="100.697" cy="100.697" r="64.794"/>
	<path style="fill:#333E48;" d="M186.271,233.504c-13.044-13.042-13.044-34.191,0-47.234c13.043-13.044,34.19-13.043,47.234,0
		l54.6,54.601c13.044,13.043,13.044,34.19,0,47.234c-13.042,13.043-34.19,13.043-47.234,0L186.271,233.504z"/>
</g>
<g>
</g>
<g>
</g>
<g>
</g>
<g>
</g>
<g>
</g>
<g>
</g>
<g>
</g>
<g>
</g>
<g>
</g>
<g>
</g>
<g>
</g>
<g>
</g>
<g>
</g>
<g>
</g>
<g>
</g>
</svg>
